<svg version="1.1" xmlns="http://www.w3.org/2000/svg" xmlns:xlink="http://www.w3.org/1999/xlink" x="0px" y="0px"
     viewBox="0 0 160 215.5" style="enable-background:new 0 0 800 215.5;" xml:space="preserve">
<style type="text/css">
	.st0{fill:#1044E9;}
	.st1{fill:#ED5128;}
</style>
    <g>
		<path class="st0"
              d="M51.7,22.1l0.2,118.4c0,14.9,7.1,24.8,28.3,24.8c21.2,0,28.3-9.8,28.3-24.8V15.3c0-4.5,2.5-7,7.1-7h31.2    c4.5,0,7.1,2.5,7.1,7v129.2c0,42.2-32.9,64.7-73.6,64.7S6.5,186.7,6.5,144.5l0-85.1"/>
		<path class="st1" d="M6.5,50.3V14.6c0-4.5,2.5-7,7.1-7h31.2c4.5,0,7,1,7,5.4"/>
	</g>
</svg>