<svg version="1.1" xmlns="http://www.w3.org/2000/svg" xmlns:xlink="http://www.w3.org/1999/xlink" x="0px" y="0px"
     viewBox="0 0 800 215.5" style="enable-background:new 0 0 800 215.5;" xml:space="preserve">
<style type="text/css">
	.st0{fill:#1044E9;}
	.st1{fill:#ED5128;}
</style>
    <g>
		<path class="st0"
              d="M51.7,22.1l0.2,118.4c0,14.9,7.1,24.8,28.3,24.8c21.2,0,28.3-9.8,28.3-24.8V15.3c0-4.5,2.5-7,7.1-7h31.2    c4.5,0,7.1,2.5,7.1,7v129.2c0,42.2-32.9,64.7-73.6,64.7S6.5,186.7,6.5,144.5l0-85.1"/>
        <path class="st1" d="M6.5,50.3V14.6c0-4.5,2.5-7,7.1-7h31.2c4.5,0,7,1,7,5.4"/>
	</g>
    <g>
		<path class="st0"
              d="M174.1,151.5c-0.3-4.7,2.5-7.2,7.1-7.2h31.2c4.2,0,6.5,2.2,7.4,6.6c2.3,10,10.8,14.9,27.5,14.9    c18.4,0,24.4-6.9,24.4-14.9c0-11.3-14.2-16.3-31.4-22.1c-28-9.4-63.4-20.8-63.4-63.1c0-38.7,32.3-58.1,66-58.1    c33.1,0,64.9,17.4,68.3,57.5c0.3,4.7-2.6,7.2-7.1,7.2h-31.2c-4.2,0-6.5-2.2-7.4-6.6c-2.3-10.2-9.6-14.9-22.7-14.9    c-14.2,0-20.7,6.9-20.7,14.9c0,11.6,11.6,17.2,28,23c28.3,9.7,66.8,19.6,66.8,62.3c0,38.7-31.7,58.1-69.7,58.1    C210.1,209.1,177.5,191.6,174.1,151.5z"/>
        <path class="st0"
              d="M382.3,209.2h-29h-7.1c-4.5,0-7.1-2.6-7.1-7.2V14.8c0-4.6,2.6-7.2,7.1-7.2h38.2h60.6l11.6,19.2l0,17.9    c0,4.6-2.5,7.2-7.1,7.2h-65.1v33.7h58.1c4.5,0,7.1,2.6,7.1,7.2v28.8c0,4.6-2.5,7.2-7.1,7.2h-58.1v36l46.7,0.3"/>
	</g>
    <g>
		<path class="st0" d="M475,7.6h72.7l58.7,91.2l-4.9,19.2l-104.9,91.2h-72.7l111.8-100.8L475,7.6z"/>
        <path class="st1" d="M683.9,108.4l60.9,100.8H672L613.3,118l4.9-19.2L723.1,7.6h72.7L683.9,108.4z"/>
	</g>
</svg>